<svg width="162" height="42" viewBox="0 0 162 42" fill="none" xmlns="http://www.w3.org/2000/svg">
<path opacity="0.5" d="M40.0652 2.25671L30.2601 36.9917C30.2102 37.1494 30.0108 37.1967 29.8945 37.0863L23.3301 30.8583L28.2492 13.4514C28.2991 13.2937 28.1495 13.1518 27.9833 13.1991L9.63617 17.8662L3.10498 11.6697C2.98865 11.5593 3.03851 11.3701 3.20469 11.3228L39.7993 2.00444C39.9655 1.97291 40.115 2.11481 40.0652 2.25671Z" fill="#00B37E"/>
<path opacity="0.5" d="M23.3297 30.858L20.8037 39.8452C20.7538 40.0029 20.5544 40.0502 20.4381 39.9398L0.0634003 20.6251C-0.0529313 20.5147 -0.00307518 20.3255 0.163113 20.2782L9.63583 17.8658L23.3297 30.858Z" fill="#00B37E"/>
<path d="M28.2484 13.4511L23.3292 30.858L9.63533 17.8659L27.9825 13.1988C28.1487 13.1515 28.2982 13.2934 28.2484 13.4511Z" fill="#00B37E"/>
<path d="M61.2628 15.9828V29.5H57.6523V15.9828H61.2628ZM57.4275 12.4598C57.4275 11.9351 57.6107 11.502 57.9772 11.1605C58.3436 10.819 58.835 10.6483 59.4513 10.6483C60.0593 10.6483 60.5465 10.819 60.913 11.1605C61.2878 11.502 61.4751 11.9351 61.4751 12.4598C61.4751 12.9845 61.2878 13.4176 60.913 13.759C60.5465 14.1005 60.0593 14.2712 59.4513 14.2712C58.835 14.2712 58.3436 14.1005 57.9772 13.759C57.6107 13.4176 57.4275 12.9845 57.4275 12.4598ZM78.8777 19.993V27.2013C78.5945 27.5428 78.1572 27.9134 77.5659 28.3132C76.9746 28.7046 76.2125 29.0419 75.2797 29.3251C74.3469 29.6083 73.2184 29.7499 71.8942 29.7499C70.7198 29.7499 69.6496 29.5583 68.6835 29.1752C67.7174 28.7837 66.8845 28.2132 66.1849 27.4637C65.4937 26.7141 64.9606 25.798 64.5859 24.7152C64.2111 23.6242 64.0237 22.3791 64.0237 20.9799V19.843C64.0237 18.4438 64.2027 17.1987 64.5609 16.1077C64.9273 15.0166 65.4479 14.0963 66.1225 13.3468C66.7971 12.5972 67.6008 12.0267 68.5336 11.6352C69.4664 11.2438 70.5033 11.0481 71.6443 11.0481C73.2267 11.0481 74.526 11.3063 75.5421 11.8226C76.5582 12.3307 77.3327 13.0386 77.8657 13.9464C78.4071 14.8459 78.7402 15.8786 78.8652 17.0446H75.2298C75.1381 16.4283 74.9632 15.8911 74.7051 15.4331C74.4469 14.975 74.0763 14.6169 73.5932 14.3587C73.1185 14.1005 72.5022 13.9714 71.7443 13.9714C71.1196 13.9714 70.5616 14.1005 70.0702 14.3587C69.5872 14.6085 69.1791 14.9792 68.8459 15.4705C68.5128 15.9619 68.2588 16.5699 68.0839 17.2945C67.909 18.0191 67.8215 18.8603 67.8215 19.8181V20.9799C67.8215 21.9293 67.9131 22.7705 68.0963 23.5034C68.2796 24.228 68.5503 24.8402 68.9084 25.3399C69.2748 25.8313 69.7246 26.2019 70.2576 26.4517C70.7906 26.7016 71.4111 26.8265 72.119 26.8265C72.7104 26.8265 73.2018 26.7766 73.5932 26.6766C73.993 26.5767 74.3136 26.4559 74.5551 26.3143C74.805 26.1644 74.9966 26.0228 75.1298 25.8896V22.6664H71.7068V19.993H78.8777ZM85.274 18.7811V29.5H81.6636V15.9828H85.0491L85.274 18.7811ZM84.7743 22.2666H83.7749C83.7749 21.3255 83.8873 20.4594 84.1122 19.6681C84.3454 18.8686 84.6827 18.1773 85.1241 17.5943C85.5738 17.003 86.1277 16.5449 86.7856 16.2201C87.4436 15.8953 88.2056 15.7329 89.0718 15.7329C89.6715 15.7329 90.2212 15.8245 90.7209 16.0077C91.2206 16.1826 91.6495 16.4616 92.0076 16.8448C92.3741 17.2195 92.6573 17.7109 92.8571 18.3189C93.057 18.9186 93.157 19.639 93.157 20.4802V29.5H89.559V20.8799C89.559 20.2636 89.4758 19.7889 89.3092 19.4558C89.1426 19.1226 88.9052 18.8894 88.5971 18.7562C88.2973 18.6229 87.935 18.5563 87.5102 18.5563C87.0438 18.5563 86.6357 18.6521 86.2859 18.8436C85.9444 19.0352 85.6613 19.3017 85.4364 19.6432C85.2115 19.9763 85.045 20.3677 84.9367 20.8175C84.8284 21.2672 84.7743 21.7503 84.7743 22.2666ZM92.8197 21.8544L91.5329 22.0168C91.5329 21.134 91.6412 20.3136 91.8577 19.5557C92.0826 18.7978 92.4116 18.1315 92.8447 17.5569C93.2861 16.9822 93.8316 16.5366 94.4812 16.2201C95.1308 15.8953 95.8804 15.7329 96.7299 15.7329C97.3796 15.7329 97.9709 15.8287 98.5039 16.0202C99.0369 16.2035 99.4908 16.4991 99.8656 16.9072C100.249 17.307 100.54 17.8317 100.74 18.4813C100.948 19.1309 101.052 19.9263 101.052 20.8675V29.5H97.442V20.8675C97.442 20.2428 97.3587 19.7681 97.1922 19.4433C97.0339 19.1101 96.8007 18.8811 96.4926 18.7562C96.1927 18.6229 95.8346 18.5563 95.4182 18.5563C94.9851 18.5563 94.6061 18.6437 94.2813 18.8186C93.9565 18.9852 93.6858 19.2184 93.4693 19.5182C93.2528 19.8181 93.0903 20.1679 92.9821 20.5676C92.8738 20.9591 92.8197 21.388 92.8197 21.8544ZM103.264 22.8788V22.6164C103.264 21.6253 103.405 20.7134 103.688 19.8805C103.972 19.0393 104.384 18.3106 104.925 17.6943C105.467 17.078 106.133 16.5991 106.924 16.2576C107.715 15.9078 108.623 15.7329 109.648 15.7329C110.672 15.7329 111.584 15.9078 112.383 16.2576C113.183 16.5991 113.853 17.078 114.395 17.6943C114.944 18.3106 115.361 19.0393 115.644 19.8805C115.927 20.7134 116.069 21.6253 116.069 22.6164V22.8788C116.069 23.8616 115.927 24.7735 115.644 25.6147C115.361 26.4476 114.944 27.1763 114.395 27.801C113.853 28.4173 113.187 28.8962 112.396 29.2377C111.605 29.5791 110.697 29.7499 109.673 29.7499C108.648 29.7499 107.736 29.5791 106.937 29.2377C106.145 28.8962 105.475 28.4173 104.925 27.801C104.384 27.1763 103.972 26.4476 103.688 25.6147C103.405 24.7735 103.264 23.8616 103.264 22.8788ZM106.862 22.6164V22.8788C106.862 23.4451 106.912 23.974 107.012 24.4654C107.111 24.9568 107.27 25.3899 107.486 25.7646C107.711 26.1311 108.003 26.4184 108.361 26.6266C108.719 26.8349 109.156 26.939 109.673 26.939C110.172 26.939 110.601 26.8349 110.959 26.6266C111.317 26.4184 111.605 26.1311 111.821 25.7646C112.038 25.3899 112.196 24.9568 112.296 24.4654C112.404 23.974 112.458 23.4451 112.458 22.8788V22.6164C112.458 22.0668 112.404 21.5504 112.296 21.0673C112.196 20.576 112.034 20.1429 111.809 19.7681C111.592 19.385 111.305 19.0851 110.947 18.8686C110.589 18.6521 110.156 18.5438 109.648 18.5438C109.139 18.5438 108.706 18.6521 108.348 18.8686C107.998 19.0851 107.711 19.385 107.486 19.7681C107.27 20.1429 107.111 20.576 107.012 21.0673C106.912 21.5504 106.862 22.0668 106.862 22.6164ZM121.803 18.8686V29.5H118.205V15.9828H121.578L121.803 18.8686ZM121.278 22.2666H120.304C120.304 21.2672 120.433 20.3677 120.691 19.5682C120.949 18.7603 121.312 18.0732 121.778 17.5069C122.244 16.9322 122.798 16.495 123.44 16.1951C124.089 15.887 124.814 15.7329 125.613 15.7329C126.246 15.7329 126.825 15.8245 127.35 16.0077C127.875 16.191 128.324 16.4825 128.699 16.8822C129.082 17.282 129.374 17.8109 129.574 18.4688C129.782 19.1268 129.886 19.9305 129.886 20.8799V29.5H126.263V20.8675C126.263 20.2678 126.18 19.8014 126.013 19.4683C125.847 19.1351 125.601 18.9019 125.276 18.7687C124.96 18.6271 124.568 18.5563 124.102 18.5563C123.619 18.5563 123.198 18.6521 122.84 18.8436C122.49 19.0352 122.199 19.3017 121.965 19.6432C121.741 19.9763 121.57 20.3677 121.453 20.8175C121.337 21.2672 121.278 21.7503 121.278 22.2666ZM138.843 29.7499C137.794 29.7499 136.853 29.5833 136.02 29.2501C135.187 28.9087 134.479 28.4381 133.896 27.8385C133.321 27.2388 132.88 26.5434 132.572 25.7521C132.264 24.9526 132.11 24.1031 132.11 23.2036V22.7039C132.11 21.6795 132.255 20.7425 132.547 19.893C132.838 19.0435 133.255 18.3064 133.796 17.6818C134.346 17.0571 135.012 16.5782 135.795 16.2451C136.578 15.9036 137.461 15.7329 138.443 15.7329C139.401 15.7329 140.251 15.8911 140.992 16.2076C141.733 16.5241 142.354 16.9739 142.853 17.5569C143.362 18.1398 143.745 18.8394 144.003 19.6556C144.261 20.4635 144.39 21.363 144.39 22.3541V23.8532H133.646V21.4546H140.855V21.1798C140.855 20.6801 140.763 20.2345 140.58 19.843C140.405 19.4433 140.138 19.1268 139.78 18.8936C139.422 18.6604 138.964 18.5438 138.406 18.5438C137.931 18.5438 137.523 18.6479 137.182 18.8561C136.84 19.0643 136.561 19.3558 136.345 19.7306C136.136 20.1054 135.978 20.5468 135.87 21.0548C135.77 21.5546 135.72 22.1042 135.72 22.7039V23.2036C135.72 23.745 135.795 24.2447 135.945 24.7028C136.103 25.1608 136.324 25.5564 136.607 25.8896C136.899 26.2227 137.248 26.4809 137.656 26.6641C138.073 26.8474 138.543 26.939 139.068 26.939C139.718 26.939 140.322 26.814 140.88 26.5642C141.446 26.306 141.933 25.9187 142.341 25.4024L144.09 27.3013C143.807 27.7094 143.42 28.1008 142.928 28.4756C142.445 28.8504 141.862 29.1585 141.179 29.4001C140.496 29.6333 139.718 29.7499 138.843 29.7499ZM149.162 11.3104L152.96 19.6057L156.758 11.3104H160.843L154.859 22.8788V29.5H151.061V22.8788L145.065 11.3104H149.162Z" fill="#E1E1E6"/>
</svg>
